# xmcd
#
# Track frame offsets: 
#        150
#        15305
#        24098
#        39952
#        58497
#        69820
#        95225
#        111990
#        122307
#        141402
#        155848
#        169280
#        185871
#        203301
#        226448
#
# Disc length: 3239 seconds
#
# Revision: 0
# Processed by: cddbd v1.5.2PL0 Copyright (c) Steve Scherf et al.
# Submitted via: ExactAudioCopy v0.99pb4
#
DISCID=ca0ca50f
DTITLE=Henning Pertiet Trio - Boogie Woogie and Blues Variety
DYEAR=2005
DGENRE=Boogie Woogie
TTITLE0=Blue Scent Boogie
TTITLE1=Perdido
TTITLE2=Honky Tonk Train Blues
TTITLE3=Blues Flakes
TTITLE4=Boogie De Funk
TTITLE5=Blazeaway
TTITLE6=Abdullah's Blues
TTITLE7=Boogie For You
TTITLE8=DD Dreaming
TTITLE9=The Fives
TTITLE10=Ein Lied
TTITLE11=Well You Needn't - In Walked Bud
TTITLE12=Vince Blues
TTITLE13=Pinetop's Boogie
TTITLE14=Variations On A Dream
EXTD=
EXTT0=
EXTT1=
EXTT2=
EXTT3=
EXTT4=
EXTT5=
EXTT6=
EXTT7=
EXTT8=
EXTT9=
EXTT10=
EXTT11=
EXTT12=
EXTT13=
EXTT14=
PLAYORDER=
